<?xml version="1.0" encoding="UTF-8"?>
<!-- Created with Inkscape (http://www.inkscape.org/) -->
<svg width="102.49mm" height="20.435mm" version="1.1" viewBox="0 0 102.49 20.435" xmlns="http://www.w3.org/2000/svg">
 <g transform="translate(-31.798 -115.9)">
  <text transform="scale(.26458)" font-family="sans-serif" font-size="66.667px" style="line-height:1.25;shape-inside:url(#rect123124);white-space:pre" xml:space="preserve"/>
  <path x="31.798046" y="115.90435" width="102.49488" height="20.434528" d="m34.973 115.9h96.145a3.175 3.175 45 0 1 3.175 3.175v14.085a3.175 3.175 135 0 1-3.175 3.175h-96.145a3.175 3.175 45 0 1-3.175-3.175v-14.085a3.175 3.175 135 0 1 3.175-3.175z" fill="#2c3e50"/>
  <g fill="#ecf0f1" stroke-width=".2" aria-label=".dotfiles">
   <path d="m38.544 130.64h1.8173v2.1876h-1.8173z"/>
   <path d="m49.483 119.21v4.8484c-0.6151-0.67842-1.4021-1.0402-2.4061-1.0402-2.3609 0-3.772 2.1257-3.772 5.0294 0 3.0031 1.1397 5.0203 3.5911 5.0203 1.1217 0 2.0443-0.5156 2.6865-1.4202l0.14473 1.1759h1.782v-13.387zm-1.8724 5.364c0.76888 0 1.4021 0.38896 1.8724 1.0583v4.5228c-0.47942 0.75079-1.1397 1.3568-2.0533 1.3568-1.2573 0-1.981-1.0312-1.981-3.4645 0-2.379 0.79601-3.4735 2.1619-3.4735z"/>
   <path d="m58.556 123.02c-2.777 0-4.3238 2.0534-4.3238 5.0294 0 3.0846 1.5287 5.0203 4.3147 5.0203 2.768 0 4.3147-2.0081 4.3147-5.0384 0-3.0393-1.5106-5.0113-4.3057-5.0113zm0 1.5739c1.4563 0 2.18 1.0855 2.18 3.4373 0 2.388-0.72365 3.4735-2.189 3.4735-1.4654 0-2.189-1.0855-2.189-3.4554s0.74174-3.4554 2.1981-3.4554z"/>
   <path d="m73.563 132.32-0.73269-1.3388c-0.48846 0.27137-1.0764 0.45228-1.7729 0.45228-1.1669 0-1.6463-0.49751-1.6463-1.5197v-5.165h2.9941l0.22614-1.4744h-3.2202v-2.379l-2.0262 0.24423v2.1348h-2.1257v1.4744h2.1257v5.1831c0 1.8815 1.1669 3.1388 3.3921 3.1388 1.0583 0 2.0895-0.30755 2.786-0.75078z"/>
   <path d="m82.246 119.21c-2.2162 0-3.6635 1.2302-3.6635 3.0393v1.7096h-2.1709v1.4925h2.1709v7.3722h2.0172v-7.3722h2.976l0.21709-1.4925h-3.1931v-1.6915c0-1.0222 0.59701-1.4835 1.8453-1.4835 0.7146 0 1.4202 0.11759 2.0533 0.37992l0.59701-1.4021c-0.78697-0.34373-1.6825-0.55178-2.8494-0.55178z"/>
   <path d="m91.102 119.17c-0.77792 0-1.3207 0.55178-1.3207 1.2664 0 0.73269 0.54274 1.2935 1.3207 1.2935 0.79601 0 1.3297-0.56083 1.3297-1.2935 0-0.7146-0.53369-1.2664-1.3297-1.2664zm1.4111 4.7851h-4.7942v1.4925h2.768v5.8887h-2.8584v1.4835h7.4807v-1.4835h-2.5961z"/>
   <path d="m102.35 119.44h-4.9118v1.4925h2.8855v9.1089c0 1.8724 1.1126 3.0303 3.0393 3.0303 1.0674 0 1.8905-0.25327 2.4604-0.54273l-0.51559-1.4111c-0.47037 0.18995-0.96788 0.31659-1.5106 0.31659-0.85933 0-1.4473-0.33469-1.4473-1.2121z"/>
   <path d="m110.69 128.7h6.3319c0.0271-0.24423 0.0452-0.57892 0.0452-0.90456 0-2.967-1.583-4.7761-4.1157-4.7761-2.7137 0-4.36 2.1709-4.36 5.0384 0 2.967 1.6282 5.0112 4.6042 5.0112 1.3568 0 2.5961-0.47037 3.4826-1.194l-0.87742-1.2121c-0.80506 0.53369-1.5739 0.83219-2.5056 0.83219-1.384 0-2.4875-0.83219-2.6051-2.7951zm2.2795-4.1791c1.3478 0 2.0986 1.0041 2.1348 2.7951h-4.4233c0.12664-1.9086 1.0131-2.7951 2.2885-2.7951z"/>
   <path d="m123.33 131.51c-1.1216 0-2.1076-0.4161-2.8494-1.0222l-1.0764 1.2302c0.87742 0.76888 2.1528 1.3478 3.9258 1.3478 2.1981 0 4.2152-0.90456 4.2152-2.967 0-1.8182-1.2212-2.4604-3.0846-2.976-1.9086-0.53369-2.4333-0.79601-2.4333-1.5106 0-0.64224 0.5156-1.0583 1.8091-1.0583 1.1126 0 1.981 0.35278 2.7227 0.84124l0.85028-1.2754c-0.85028-0.62414-2.0262-1.1036-3.6273-1.1036-2.3518 0-3.8172 1.1036-3.8172 2.7408 0 1.6734 1.2483 2.3428 3.1388 2.8222 1.981 0.5156 2.2976 0.88647 2.2976 1.6553 0 0.79602-0.80505 1.2754-2.0714 1.2754z"/>
  </g>
 </g>
</svg>
